<?xml version="1.0" encoding="UTF-8"?>
<svg version="1.1" xmlns="http://www.w3.org/2000/svg" width="1024" height="1024">
<path d="M0 0 C337.92 0 675.84 0 1024 0 C1024 337.92 1024 675.84 1024 1024 C686.08 1024 348.16 1024 0 1024 C0 686.08 0 348.16 0 0 Z " fill="#FDFDFD" transform="translate(0,0)"/>
<path d="M0 0 C0.78905731 -0.00349457 1.57811462 -0.00698914 2.39108276 -0.0105896 C26.99738506 -0.07101121 56.22524996 3.66081115 75.0625 21.3125 C84.30321398 30.79299299 84.30321398 30.79299299 84.5 38.0625 C84.34266529 45.18451784 80.96347008 49.08697405 76.5 54.3125 C71.33274134 57.31890504 66.87573997 57.70679233 61.0625 56.3125 C58.21430279 54.42664821 56.01202975 52.32372352 53.6171875 49.890625 C37.85016028 33.97894615 15.82725606 26.39773303 -6.30688477 26.07080078 C-42.01921357 25.963224 -79.07175069 35.72068766 -105.15625 61.34375 C-120.17446349 76.90579852 -129.70659056 98.20028302 -129.40820312 119.94775391 C-128.62481747 138.12813491 -121.04646525 152.87218255 -108.9375 166.3125 C-108.31230469 167.00859375 -107.68710937 167.7046875 -107.04296875 168.421875 C-97.34291196 178.6324611 -85.13490298 186.40319723 -73.4375 194.125 C-72.78354248 194.55858826 -72.12958496 194.99217651 -71.45581055 195.43890381 C-56.51694804 205.34181288 -41.29136498 214.71526224 -25.90991211 223.91162109 C14.19207366 247.89196304 14.19207366 247.89196304 28.0625 259.3125 C28.59633301 259.74626953 29.13016602 260.18003906 29.68017578 260.62695312 C53.91588252 280.35616681 72.86277699 304.49688621 77.0625 336.3125 C78.14631855 351.60319397 77.6914812 366.64519174 73.0625 381.3125 C72.74901611 382.32546143 72.74901611 382.32546143 72.42919922 383.35888672 C67.29677501 399.4481716 58.76996042 413.3564729 48.0625 426.3125 C47.4334375 427.08335937 46.804375 427.85421875 46.15625 428.6484375 C42.17826988 433.36776846 37.78780936 437.35718101 33.0625 441.3125 C32.17691406 442.0859375 31.29132812 442.859375 30.37890625 443.65625 C-6.28970462 475.21170796 -53.29563559 488.35111845 -101.05859375 485 C-105.70944575 484.59833112 -110.32103425 484.00038084 -114.9375 483.3125 C-115.7816748 483.18891113 -116.62584961 483.06532227 -117.49560547 482.93798828 C-132.36592539 480.68325313 -146.63009225 476.90967381 -160.9375 472.3125 C-161.81776855 472.03486816 -162.69803711 471.75723633 -163.60498047 471.47119141 C-190.40493261 462.87957638 -215.44017971 448.73988776 -240.27783203 435.69726562 C-243.80992729 433.85826762 -247.36812432 432.0779055 -250.9375 430.3125 C-248.18442827 483.53295782 -239.45276422 535.55861401 -222.9375 586.3125 C-222.55513184 587.49392578 -222.17276367 588.67535156 -221.77880859 589.89257812 C-204.99257906 641.27813969 -183.11819569 695.01377515 -144.9375 734.3125 C-144.14484741 735.14563721 -144.14484741 735.14563721 -143.33618164 735.99560547 C-139.19893363 740.26446394 -134.81236431 743.83514149 -130 747.3125 C-114.86547131 758.45655738 -114.86547131 758.45655738 -112.9375 762.3125 C-112.44731971 766.64242589 -112.39420222 768.59342941 -115.0625 772.125 C-123.53610297 778.57230661 -136.23751135 777.25395929 -146.32763672 776.02026367 C-151.76184252 775.14717959 -157.09442952 773.87054424 -162.4375 772.5625 C-164.16085076 772.15637409 -165.88440842 771.75112529 -167.6081543 771.34667969 C-217.81304313 759.42918793 -267.15967656 744.06835844 -315.9375 727.3125 C-316.90214172 726.98121094 -317.86678345 726.64992188 -318.86065674 726.30859375 C-371.55223181 708.18004089 -423.8625992 688.62920796 -473.82666016 663.84814453 C-476.61840693 662.47001808 -479.42054452 661.11789268 -482.23046875 659.77734375 C-504.00801797 649.29490713 -525.22343011 636.66033533 -544.4375 622 C-545.11296875 621.48888672 -545.7884375 620.97777344 -546.484375 620.45117188 C-547.75754105 619.48752552 -549.02976192 618.52262839 -550.30078125 617.55615234 C-552.17344192 616.13322074 -554.05365145 614.72058068 -555.9375 613.3125 C-556.55496094 614.19550781 -557.17242188 615.07851563 -557.80859375 615.98828125 C-563.23013309 623.69200581 -568.85147182 631.11450582 -574.9375 638.3125 C-575.8504927 639.41256768 -576.76324157 640.51283775 -577.67578125 641.61328125 C-603.98784312 673.10380433 -603.98784312 673.10380433 -620.28125 675.68359375 C-624.32026767 675.80798379 -627.1757492 675.63157092 -630.5 673.1875 C-632.9375 670.3125 -632.9375 670.3125 -633.625 667.3125 C-632.29693477 661.51730627 -626.88853249 658.42585156 -622.25 655.125 C-610.2777361 646.20420336 -601.70175662 635.2378003 -592.9375 623.3125 C-592.06279053 622.12503174 -592.06279053 622.12503174 -591.17041016 620.91357422 C-589.419679 618.53032705 -587.67634056 616.14193441 -585.9375 613.75 C-585.40987061 613.02490234 -584.88224121 612.29980469 -584.33862305 611.55273438 C-577.83387319 603.80476662 -577.83387319 603.80476662 -575.1875 594.8125 C-576.66100916 592.70748692 -578.13631343 590.9984032 -579.875 589.125 C-593.15861757 574.39630269 -600.68529879 555.41659237 -604.9375 536.3125 C-605.23785156 535.03632812 -605.53820312 533.76015625 -605.84765625 532.4453125 C-610.78088095 508.83432004 -609.84625361 481.58555439 -603.9375 458.3125 C-603.58301121 456.78392883 -603.22884036 455.2552839 -602.875 453.7265625 C-592.35152441 410.58498967 -563.92536291 371.18681245 -526.375 347.6875 C-511.013474 338.38283253 -494.50850193 331.93999141 -476.9375 328.3125 C-476.18227051 328.15023926 -475.42704102 327.98797852 -474.64892578 327.82080078 C-465.32794834 325.90439358 -456.4450349 325.18019286 -446.953125 325.73046875 C-431.90634649 327.27717593 -431.90634649 327.27717593 -417.58496094 324.10839844 C-413.88453494 320.56515868 -412.51825278 315.98248333 -410.98779297 311.20166016 C-409.1117683 306.04106603 -406.33252278 301.33949673 -403.67593384 296.54672241 C-402.34833094 294.13347654 -401.05993362 291.70015334 -399.76921082 289.26704407 C-395.46064735 281.16006436 -390.87709636 273.22923998 -386.21020508 265.32421875 C-381.14868926 256.7330833 -376.29616161 248.03485821 -371.47265625 239.30834961 C-367.49940892 232.12074931 -363.4900359 224.95567858 -359.4375 217.8125 C-349.34676478 200.00422386 -339.41988106 182.10935433 -329.7109375 164.09008789 C-325.51239275 156.32007884 -321.17996194 148.63178577 -316.81201172 140.95605469 C-312.36678339 133.12379486 -308.0750895 125.21460671 -303.80810547 117.28417969 C-300.14468482 110.49339514 -296.38424738 103.7652659 -292.5625 97.0625 C-286.08713953 85.68819237 -279.91066042 74.1594086 -273.75982666 62.6078186 C-268.73214242 53.16674279 -263.65708186 43.75131881 -258.56884766 34.34277344 C-256.96445646 31.36257238 -255.37734541 28.37369194 -253.79296875 25.3828125 C-252.8206349 23.56753561 -251.84799613 21.75242199 -250.875 19.9375 C-250.44606445 19.11701172 -250.01712891 18.29652344 -249.57519531 17.45117188 C-246.52760514 11.80891403 -243.12009269 7.66484104 -236.9375 5.3125 C-232.31257942 4.98455109 -228.19747074 5.68265178 -224.5 8.5625 C-219.9388351 13.45740867 -219.78006302 17.13669873 -219.82592773 23.56973267 C-220.00112481 27.87658089 -220.67452928 32.05028915 -221.40625 36.29296875 C-221.63992783 37.71067062 -221.63992783 37.71067062 -221.87832642 39.15701294 C-222.21540731 41.20062404 -222.55573153 43.24370232 -222.89898682 45.2862854 C-223.83676161 50.88269535 -224.74141706 56.48447477 -225.6484375 62.0859375 C-225.93290237 63.83911034 -225.93290237 63.83911034 -226.22311401 65.62770081 C-232.44333545 104.09764894 -237.51861653 142.65548721 -241.62756348 181.40533447 C-241.91893794 184.13839023 -242.21542494 186.87082103 -242.51464844 189.60302734 C-246.98104643 230.39579728 -250.26481559 271.30809991 -251.9375 312.3125 C-251.99592038 313.69824263 -252.05435114 315.08398483 -252.11279297 316.46972656 C-253.11666807 340.74611529 -253.04716166 365.01991062 -252.9375 389.3125 C-238.53225364 397.62587154 -223.95559113 405.51657948 -209.15625 413.10546875 C-204.89880193 415.28964159 -200.67880851 417.52587523 -196.48388672 419.82714844 C-149.0213427 445.71142276 -90.71637612 466.9833088 -36.6875 451.3125 C-7.74169851 442.41778294 15.34736164 424.49330715 29.8125 397.6875 C38.57491635 379.24353273 41.68759692 357.98837314 35.0625 338.3125 C24.45808205 312.10953455 3.84960547 295.80031887 -19.0625 280.6875 C-19.70101898 280.26385162 -20.33953796 279.84020325 -20.99740601 279.40371704 C-36.82248314 268.91180091 -53.06630723 259.15502976 -69.40234375 249.484375 C-93.36279853 235.26969977 -116.69035298 220.56014046 -136.9375 201.3125 C-137.71738281 200.60867188 -138.49726562 199.90484375 -139.30078125 199.1796875 C-156.66311133 182.95839865 -167.46928823 159.62677433 -169.17578125 136.015625 C-169.84780433 104.74886701 -154.67595211 76.76782983 -133.9375 54.3125 C-133.14988281 53.44238281 -132.36226562 52.57226562 -131.55078125 51.67578125 C-110.19032732 29.15482728 -81.28485947 15.16294149 -51.9375 6.3125 C-50.92816406 6.00570312 -49.91882813 5.69890625 -48.87890625 5.3828125 C-45.91265605 4.56656776 -42.95481976 3.91453055 -39.9375 3.3125 C-39.29264648 3.17714844 -38.64779297 3.04179687 -37.98339844 2.90234375 C-25.37059908 0.35569395 -12.81930893 0.0183017 0 0 Z " fill="#0A0B0A" transform="translate(790.9375,134.6875)"/>
<path d="M0 0 C6.1448443 0.34858615 11.82316819 2.36415946 17.625 4.3125 C19.18468506 4.83602051 19.18468506 4.83602051 20.77587891 5.37011719 C48.0678347 14.74050331 74.31266188 27.11622193 100.125 39.9375 C101.1977417 40.46915771 102.2704834 41.00081543 103.37573242 41.54858398 C104.38869385 42.05719971 105.40165527 42.56581543 106.4453125 43.08984375 C107.32719238 43.53191162 108.20907227 43.97397949 109.11767578 44.42944336 C110.06884277 44.94772705 111.02000977 45.46601074 112 46 C113.02571106 46.4766082 113.02571106 46.4766082 114.07214355 46.96284485 C119.49710252 49.77430303 119.49710252 49.77430303 120.82119751 53.0014801 C121.24809693 55.49370512 121.41933313 57.89902803 121.515625 60.42578125 C121.61534859 61.81674515 121.61534859 61.81674515 121.71708679 63.23580933 C121.85574658 65.2253316 121.97742491 67.21609685 122.08370972 69.20761108 C122.30801469 73.39572126 122.61563439 77.5764643 122.91807556 81.75953674 C123.06909709 83.86326526 123.21579276 85.96730877 123.35816956 88.07164001 C124.91424043 110.9483725 128.46868391 133.53558207 133 156 C133.24588867 157.25296875 133.49177734 158.5059375 133.74511719 159.796875 C148.21890716 233.52862422 173.61954466 316.72083716 220.06665039 376.77563477 C220.54996826 377.40139404 221.03328613 378.02715332 221.53125 378.671875 C221.95986328 379.2194043 222.38847656 379.76693359 222.83007812 380.33105469 C224.10014158 382.14285639 225.05678035 384.00137637 226 386 C218.18421562 386.3167019 211.21333871 385.5300786 203.625 383.6875 C201.95739624 383.28990479 201.95739624 383.28990479 200.25610352 382.88427734 C168.27782961 375.03820973 136.97512126 364.34565712 105.769104 353.9239502 C103.23952257 353.07992005 100.7085911 352.24008939 98.17724609 351.40136719 C76.92007026 344.33567759 56.10289227 336.19679232 35.3125 327.875 C34.67632626 327.62045044 34.04015251 327.36590088 33.38470078 327.1036377 C-12.28520229 308.81949549 -12.28520229 308.81949549 -34.1875 298.5625 C-35.3427417 298.02230225 -36.4979834 297.48210449 -37.68823242 296.92553711 C-72.38416332 280.56789654 -105.51798591 260.91686375 -134 235 C-132.63150275 231.36105072 -130.99539358 228.0675892 -129.05078125 224.703125 C-128.4578125 223.67509766 -127.86484375 222.64707031 -127.25390625 221.58789062 C-126.61324219 220.48638672 -125.97257812 219.38488281 -125.3125 218.25 C-124.63796145 217.08532085 -123.96348331 215.92060671 -123.2890625 214.75585938 C-118.16006661 205.91636191 -112.91035422 197.15171134 -107.63037109 188.40161133 C-101.85621394 178.81182261 -96.26521808 169.12123832 -90.69140625 159.4140625 C-87.11877364 153.19416462 -83.49998126 147.00198413 -79.875 140.8125 C-73.67886892 130.21732401 -67.62018742 119.54852709 -61.60449219 108.85009766 C-59.46879047 105.05639987 -57.32353056 101.26814589 -55.1784668 97.47973633 C-45.25263343 79.94494716 -35.41488385 62.36101732 -25.625 44.75 C-25.01454834 43.65212158 -24.40409668 42.55424316 -23.77514648 41.4230957 C-20.35479304 35.26414092 -16.95218959 29.09597177 -13.56640625 22.91796875 C-12.46478616 20.91069768 -11.36298177 18.90352785 -10.26116943 16.8963623 C-9.20553355 14.97040142 -8.15374451 13.04237338 -7.10205078 11.11425781 C-6.45753339 9.93935622 -5.81284825 8.76454663 -5.16796875 7.58984375 C-4.32141724 6.04091431 -4.32141724 6.04091431 -3.45776367 4.46069336 C-2 2 -2 2 0 0 Z " fill="#FDFDFD" transform="translate(382,492)"/>
<path d="M0 0 C0.78905731 -0.00349457 1.57811462 -0.00698914 2.39108276 -0.0105896 C26.99738506 -0.07101121 56.22524996 3.66081115 75.0625 21.3125 C84.30321398 30.79299299 84.30321398 30.79299299 84.5 38.0625 C84.34266529 45.18451784 80.96347008 49.08697405 76.5 54.3125 C71.33274134 57.31890504 66.87573997 57.70679233 61.0625 56.3125 C58.21430279 54.42664821 56.01202975 52.32372352 53.6171875 49.890625 C37.85016028 33.97894615 15.82725606 26.39773303 -6.30688477 26.07080078 C-42.01921357 25.963224 -79.07175069 35.72068766 -105.15625 61.34375 C-120.17446349 76.90579852 -129.70659056 98.20028302 -129.40820312 119.94775391 C-128.62481747 138.12813491 -121.04646525 152.87218255 -108.9375 166.3125 C-108.31230469 167.00859375 -107.68710937 167.7046875 -107.04296875 168.421875 C-97.34291196 178.6324611 -85.13490298 186.40319723 -73.4375 194.125 C-72.78354248 194.55858826 -72.12958496 194.99217651 -71.45581055 195.43890381 C-56.51694804 205.34181288 -41.29136498 214.71526224 -25.90991211 223.91162109 C14.19207366 247.89196304 14.19207366 247.89196304 28.0625 259.3125 C28.59633301 259.74626953 29.13016602 260.18003906 29.68017578 260.62695312 C53.91588252 280.35616681 72.86277699 304.49688621 77.0625 336.3125 C78.14631855 351.60319397 77.6914812 366.64519174 73.0625 381.3125 C72.74901611 382.32546143 72.74901611 382.32546143 72.42919922 383.35888672 C67.29677501 399.4481716 58.76996042 413.3564729 48.0625 426.3125 C47.11890625 427.46878906 47.11890625 427.46878906 46.15625 428.6484375 C42.18188954 433.36347423 37.8046674 437.38327559 33.0625 441.3125 C31.763125 442.42625 31.763125 442.42625 30.4375 443.5625 C29.550625 444.305 28.66375 445.0475 27.75 445.8125 C26.92886719 446.5034375 26.10773438 447.194375 25.26171875 447.90625 C24.53597656 448.3703125 23.81023437 448.834375 23.0625 449.3125 C22.0725 448.9825 21.0825 448.6525 20.0625 448.3125 C20.26875 447.405 20.475 446.4975 20.6875 445.5625 C21.07638867 442.19213154 20.97543847 441.03088625 19.0625 438.3125 C18.4025 437.9825 17.7425 437.6525 17.0625 437.3125 C16.375 435.375 16.375 435.375 16.0625 433.3125 C16.3925 432.6525 16.7225 431.9925 17.0625 431.3125 C15.4125 431.3125 13.7625 431.3125 12.0625 431.3125 C13.3825 430.6525 14.7025 429.9925 16.0625 429.3125 C16.0625 427.6625 16.0625 426.0125 16.0625 424.3125 C14.0825 425.9625 12.1025 427.6125 10.0625 429.3125 C9.4025 428.9825 8.7425 428.6525 8.0625 428.3125 C9.37556526 425.36286065 10.72480827 423.51417798 13.125 421.375 C28.14450551 406.69897591 37.86401612 384.89648707 38.55297852 363.921875 C38.64162531 341.37376754 29.97234613 322.50732325 14.4375 306.3125 C4.23866154 296.54748051 -7.30294215 288.44410133 -19.0625 280.6875 C-19.70101898 280.26385162 -20.33953796 279.84020325 -20.99740601 279.40371704 C-36.82248314 268.91180091 -53.06630723 259.15502976 -69.40234375 249.484375 C-93.36279853 235.26969977 -116.69035298 220.56014046 -136.9375 201.3125 C-137.71738281 200.60867188 -138.49726562 199.90484375 -139.30078125 199.1796875 C-156.66311133 182.95839865 -167.46928823 159.62677433 -169.17578125 136.015625 C-169.84780433 104.74886701 -154.67595211 76.76782983 -133.9375 54.3125 C-133.14988281 53.44238281 -132.36226562 52.57226562 -131.55078125 51.67578125 C-110.19032732 29.15482728 -81.28485947 15.16294149 -51.9375 6.3125 C-50.92816406 6.00570312 -49.91882813 5.69890625 -48.87890625 5.3828125 C-45.91265605 4.56656776 -42.95481976 3.91453055 -39.9375 3.3125 C-39.29264648 3.17714844 -38.64779297 3.04179687 -37.98339844 2.90234375 C-25.37059908 0.35569395 -12.81930893 0.0183017 0 0 Z " fill="#0A0B0A" transform="translate(790.9375,134.6875)"/>
<path d="M0 0 C0.81276398 0.00141495 1.62552795 0.0028299 2.46292114 0.00428772 C5.04042351 0.0098529 7.6178367 0.02239885 10.1953125 0.03515625 C11.95051957 0.04017575 13.70572802 0.04473787 15.4609375 0.04882812 C19.74742982 0.05981091 24.03385607 0.07705133 28.3203125 0.09765625 C23.56537488 9.69718946 18.73230522 19.23755383 13.6328125 28.66015625 C13.0354126 29.7672998 12.4380127 30.87444336 11.82250977 32.01513672 C7.36099929 40.25186185 2.78160379 48.41684461 -1.85644531 56.55517578 C-5.70903297 63.33045637 -9.43350388 70.16681841 -13.1171875 77.03515625 C-18.10224681 86.31622151 -23.3173565 95.43992562 -28.65991211 104.51928711 C-32.08047883 110.33697019 -35.4309416 116.18241072 -38.6796875 122.09765625 C-43.04101951 130.02686012 -47.58295922 137.84379923 -52.15625 145.65234375 C-56.52776621 153.11682519 -60.86339617 160.60111654 -65.1796875 168.09765625 C-72.3014436 180.4573849 -79.46328541 192.7929404 -86.6796875 205.09765625 C-87.15760742 205.91556641 -87.63552734 206.73347656 -88.12792969 207.57617188 C-89.38958764 209.73252607 -90.65810366 211.8846448 -91.9296875 214.03515625 C-92.28853027 214.65028076 -92.64737305 215.26540527 -93.01708984 215.89916992 C-95.44916486 219.98239493 -95.44916486 219.98239493 -97.6796875 221.09765625 C-118.48665648 190.25710445 -125.45708212 153.75681332 -118.6796875 117.09765625 C-118.53966309 116.32695801 -118.39963867 115.55625977 -118.25537109 114.76220703 C-113.33686003 88.8927797 -102.12963701 63.96052462 -84.6796875 44.09765625 C-83.98488281 43.28296875 -83.29007813 42.46828125 -82.57421875 41.62890625 C-62.23670795 18.30376112 -31.76300305 -0.21061909 0 0 Z " fill="#FDFDFC" transform="translate(327.6796875,486.90234375)"/>
<path d="M0 0 C0.33 0 0.66 0 1 0 C0.45655701 10.48625643 -1.07841095 20.74740003 -2.66680908 31.11517334 C-14.59662332 109.48135554 -21.73573307 188.72836825 -23 268 C-29.81537358 265.95849997 -36.01622036 263.16543533 -42.375 260 C-65.24866173 248.89179236 -88.74519025 240.4622472 -113 233 C-114.25458008 232.61312012 -115.50916016 232.22624023 -116.80175781 231.82763672 C-119.86728689 230.88328138 -122.93334565 229.94069349 -126 229 C-124.68601607 224.69725263 -123.02216512 220.94551425 -120.83203125 217.01953125 C-120.19386475 215.86952637 -119.55569824 214.71952148 -118.89819336 213.53466797 C-118.20304752 212.29389753 -117.50781408 211.05317617 -116.8125 209.8125 C-116.09010271 208.51474912 -115.36818652 207.21673032 -114.64672852 205.91845703 C-113.1613782 203.24735288 -111.6732266 200.57784077 -110.18261719 197.90966797 C-108.15981161 194.28825098 -106.14503474 190.66246531 -104.1328125 187.03515625 C-101.0450452 181.46905476 -97.95279672 175.90546246 -94.85888672 170.34277344 C-91.73741651 164.7295386 -88.6188631 159.1146837 -85.5 153.5 C-84.25001382 151.24999232 -83.00001382 148.99999232 -81.75 146.75 C-81.13125 145.63625 -80.5125 144.5225 -79.875 143.375 C-69.5625 124.8125 -69.5625 124.8125 -59.25 106.25 C-58.63116943 105.13608887 -58.01233887 104.02217773 -57.37475586 102.87451172 C-56.12562495 100.62610861 -54.87643881 98.37773618 -53.62719727 96.12939453 C-50.48844509 90.4802133 -47.35067557 84.8304904 -44.21484375 79.1796875 C-42.95579714 76.9114206 -41.69668274 74.64319133 -40.4375 72.375 C-39.81762207 71.25826904 -39.19774414 70.14153809 -38.55908203 68.9909668 C-34.93248074 62.4626104 -31.2876411 55.94485797 -27.62915039 49.43432617 C-21.79751613 39.05588396 -16.05123429 28.63783985 -10.43701172 18.13989258 C-3.57392714 5.36016311 -3.57392714 5.36016311 0 0 Z " fill="#FDFDFC" transform="translate(524,236)"/>
<path d="M0 0 C1.53617912 4.09647766 0.69045256 7.78823937 0 12 C-0.33 12.33 -0.66 12.66 -1 13 C-1.22881538 14.99616505 -1.39531688 16.99954193 -1.53515625 19.00390625 C-1.62216797 20.21884766 -1.70917969 21.43378906 -1.79882812 22.68554688 C-1.88583984 23.96494141 -1.97285156 25.24433594 -2.0625 26.5625 C-2.15337891 27.84576172 -2.24425781 29.12902344 -2.33789062 30.45117188 C-2.56268946 33.63385015 -2.78319818 36.81676858 -3 40 C-3.33 40 -3.66 40 -4 40 C-7.02843238 26.85217161 -4.3394396 13.79447944 -1 1 C-0.67 0.67 -0.34 0.34 0 0 Z " fill="#191A19" transform="translate(627,239)"/>
<path d="M0 0 C4.82258071 0.5130405 9.07838016 1.56210707 13.6484375 3.1796875 C15.26583313 3.74389528 16.89763224 4.2679087 18.5390625 4.7578125 C19.35117187 5.00273438 20.16328125 5.24765625 21 5.5 C22.11375 5.82484375 22.11375 5.82484375 23.25 6.15625 C23.8275 6.4346875 24.405 6.713125 25 7 C25.33 7.99 25.66 8.98 26 10 C19.63569826 8.68764148 13.57878972 6.98780585 7.4375 4.875 C6.61958984 4.59785156 5.80167969 4.32070313 4.95898438 4.03515625 C2.97123432 3.36094863 0.98540651 2.68107796 -1 2 C-0.67 1.34 -0.34 0.68 0 0 Z " fill="#121312" transform="translate(485,863)"/>
<path d="M0 0 C8.25 0 16.5 0 25 0 C25 0.33 25 0.66 25 1 C27.475 1.495 27.475 1.495 30 2 C30 2.33 30 2.66 30 3 C25.7501291 3.08708752 21.50048761 3.14042181 17.25 3.1875 C16.0434375 3.21263672 14.836875 3.23777344 13.59375 3.26367188 C12.43359375 3.27333984 11.2734375 3.28300781 10.078125 3.29296875 C9.00981445 3.3086792 7.94150391 3.32438965 6.84082031 3.34057617 C4 3 4 3 0 0 Z " fill="#131514" transform="translate(691,617)"/>
<path d="M0 0 C0.99 0 1.98 0 3 0 C2.9189487 3.25100777 2.80612351 6.50016335 2.6875 9.75 C2.66494141 10.67039062 2.64238281 11.59078125 2.61914062 12.5390625 C2.58369141 13.42851562 2.54824219 14.31796875 2.51171875 15.234375 C2.48553467 16.05131836 2.45935059 16.86826172 2.43237305 17.70996094 C1.91315942 20.45994617 0.80916549 21.90229473 -1 24 C-1.02686553 22.02090602 -1.04633375 20.04171029 -1.0625 18.0625 C-1.07410156 16.96035156 -1.08570313 15.85820312 -1.09765625 14.72265625 C-1 12 -1 12 0 11 C0.07226502 9.14712498 0.0838122 7.29166122 0.0625 5.4375 C0.05347656 4.42558594 0.04445313 3.41367187 0.03515625 2.37109375 C0.02355469 1.58863281 0.01195312 0.80617188 0 0 Z " fill="#141515" transform="translate(540,375)"/>
<path d="M0 0 C0.928125 0.03544922 1.85625 0.07089844 2.8125 0.10742188 C3.699375 0.15060547 4.58625 0.19378906 5.5 0.23828125 C6.72203125 0.29495972 6.72203125 0.29495972 7.96875 0.3527832 C10 0.6875 10 0.6875 12 2.6875 C8.75007554 2.74569424 5.50028565 2.78116116 2.25 2.8125 C1.32960938 2.82925781 0.40921875 2.84601562 -0.5390625 2.86328125 C-1.87324219 2.87294922 -1.87324219 2.87294922 -3.234375 2.8828125 C-4.45979004 2.89852295 -4.45979004 2.89852295 -5.70996094 2.91455078 C-8.21887518 2.66579916 -9.83395625 1.94450129 -12 0.6875 C-8.34533673 -1.13983164 -4.00324332 -0.2029422 0 0 Z " fill="#141515" transform="translate(655,908.3125)"/>
<path d="M0 0 C1.04940487 3.14821462 0.98606526 3.9349491 0.22265625 7.01171875 C0.03896484 7.76904297 -0.14472656 8.52636719 -0.33398438 9.30664062 C-0.53314453 10.09232422 -0.73230469 10.87800781 -0.9375 11.6875 C-1.13279297 12.48478516 -1.32808594 13.28207031 -1.52929688 14.10351562 C-2.01228382 16.07080389 -2.5051963 18.03565054 -3 20 C-5.58464442 15.61991557 -4.81479148 12.88874887 -4 8 C-4.66 8 -5.32 8 -6 8 C-5.67 7.01 -5.34 6.02 -5 5 C-4.34 5 -3.68 5 -3 5 C-2.87625 4.360625 -2.7525 3.72125 -2.625 3.0625 C-2.41875 2.381875 -2.2125 1.70125 -2 1 C-1.34 0.67 -0.68 0.34 0 0 Z " fill="#0E0F0E" transform="translate(213,584)"/>
<path d="M0 0 C2.97 0.495 2.97 0.495 6 1 C6.66 2.98 7.32 4.96 8 7 C4.375 10 4.375 10 1 10 C0.67 6.7 0.34 3.4 0 0 Z " fill="#151716" transform="translate(509,356)"/>
<path d="M0 0 C0.66 0 1.32 0 2 0 C4.62299724 5.24599449 3.19826732 13.45801366 2 19 C1.67 19 1.34 19 1 19 C-0.15316726 12.65758005 -0.09507063 6.43311296 0 0 Z " fill="#1A1B1A" transform="translate(502,542)"/>
<path d="M0 0 C4.55564061 1.58532809 8.31475769 3.99003081 12.3125 6.625 C12.95767578 7.04523438 13.60285156 7.46546875 14.26757812 7.8984375 C15.84760724 8.92838241 17.42416047 9.96365628 19 11 C18.01 11.66 17.02 12.32 16 13 C15.34644531 12.38511719 15.34644531 12.38511719 14.6796875 11.7578125 C11.72270629 9.08244855 9.5917586 7.19345954 5.75 5.9375 C3 5 3 5 1.125 2.375 C0.75375 1.59125 0.3825 0.8075 0 0 Z " fill="#111211" transform="translate(708,324)"/>
<path d="M0 0 C0.33 0.66 0.66 1.32 1 2 C1.66 2 2.32 2 3 2 C3 2.66 3 3.32 3 4 C3.56589844 4.10957031 4.13179688 4.21914063 4.71484375 4.33203125 C5.44832031 4.49058594 6.18179687 4.64914062 6.9375 4.8125 C7.66839844 4.96332031 8.39929688 5.11414063 9.15234375 5.26953125 C9.76207031 5.51058594 10.37179687 5.75164063 11 6 C11.33 6.99 11.66 7.98 12 9 C10.58194169 8.71517632 9.16559621 8.42181856 7.75 8.125 C6.96109375 7.96257813 6.1721875 7.80015625 5.359375 7.6328125 C3.03168856 7.00849925 1.10968048 6.15161458 -1 5 C-1 4.34 -1 3.68 -1 3 C-1.66 2.67 -2.32 2.34 -3 2 C-2.01 1.34 -1.02 0.68 0 0 Z " fill="#111111" transform="translate(449,847)"/>
<path d="M0 0 C5.10733917 -0.20846282 9.14185114 0.44172584 14 2 C15.33130115 2.34135927 16.66358148 2.67925956 18 3 C15 5 15 5 11.42578125 4.5390625 C10.05193491 4.24703719 8.68083414 3.94185048 7.3125 3.625 C6.61060547 3.47289062 5.90871094 3.32078125 5.18554688 3.1640625 C3.4545538 2.78724768 1.72691413 2.39508737 0 2 C0 1.34 0 0.68 0 0 Z " fill="#111312" transform="translate(607,900)"/>
<path d="M0 0 C0.33 0 0.66 0 1 0 C1 1.65 1 3.3 1 5 C1.99 5.33 2.98 5.66 4 6 C2.6875 9.4375 2.6875 9.4375 1 13 C0.01 13.33 -0.98 13.66 -2 14 C-2.05437607 12.41705218 -2.09296271 10.83355744 -2.125 9.25 C-2.14820313 8.36828125 -2.17140625 7.4865625 -2.1953125 6.578125 C-1.99139502 3.8864142 -1.36551721 2.30095026 0 0 Z " fill="#151716" transform="translate(505,425)"/>
<path d="M0 0 C0.33 0 0.66 0 1 0 C1.66 6.27 2.32 12.54 3 19 C2.01 19 1.02 19 0 19 C0.33 17.02 0.66 15.04 1 13 C0.34 13 -0.32 13 -1 13 C-1.0272415 11.58344207 -1.04650467 10.16672955 -1.0625 8.75 C-1.07410156 7.96109375 -1.08570313 7.1721875 -1.09765625 6.359375 C-1.00385306 4.09308998 -0.63241063 2.1711105 0 0 Z " fill="#151514" transform="translate(542,605)"/>
<path d="M0 0 C1.64335524 2.99424895 2.55201254 5.78463145 3.25 9.125 C3.44078125 9.99382813 3.6315625 10.86265625 3.828125 11.7578125 C3.88484375 12.49773438 3.9415625 13.23765625 4 14 C3.34 14.66 2.68 15.32 2 16 C1.87625 15.195625 1.7525 14.39125 1.625 13.5625 C1.315625 12.2940625 1.315625 12.2940625 1 11 C0.34 10.67 -0.32 10.34 -1 10 C-1.125 2.25 -1.125 2.25 0 0 Z " fill="#121211" transform="translate(559,694)"/>
<path d="M0 0 C0.66 0.33 1.32 0.66 2 1 C2 1.99 2 2.98 2 4 C1.34 4 0.68 4 0 4 C0 4.66 0 5.32 0 6 C-0.66 6 -1.32 6 -2 6 C-2.33 6.66 -2.66 7.32 -3 8 C-3.99 7.67 -4.98 7.34 -6 7 C-7.1875 3.9375 -7.1875 3.9375 -8 1 C-7.01 1.33 -6.02 1.66 -5 2 C-5 2.66 -5 3.32 -5 4 C-1.87802522 2.6910428 -1.87802522 2.6910428 0 0 Z " fill="#121413" transform="translate(204,698)"/>
<path d="M0 0 C5.12895153 0.7450477 10.13235018 2.25263853 15 4 C13.4375 5.125 13.4375 5.125 11 6 C7.25 5.125 7.25 5.125 4 4 C4 3.34 4 2.68 4 2 C3.01 2.33 2.02 2.66 1 3 C0.34 2.34 -0.32 1.68 -1 1 C-0.67 0.67 -0.34 0.34 0 0 Z " fill="#121313" transform="translate(482,844)"/>
<path d="M0 0 C1.11707194 3.35121582 1.00566557 5.55562064 0.75 9.0625 C0.68296875 10.12597656 0.6159375 11.18945312 0.546875 12.28515625 C0 15 0 15 -3 17 C-3.40214229 10.83381819 -1.96818336 5.82254243 0 0 Z " fill="#121313" transform="translate(662,229)"/>
<path d="M0 0 C0.66 0 1.32 0 2 0 C2.50404808 2.10320063 3.00310508 4.20759791 3.5 6.3125 C3.7784375 7.48425781 4.056875 8.65601563 4.34375 9.86328125 C5 13 5 13 5 16 C4.34 16 3.68 16 3 16 C2.67 13.36 2.34 10.72 2 8 C1.34 8 0.68 8 0 8 C0 5.36 0 2.72 0 0 Z " fill="#181918" transform="translate(549,657)"/>
<path d="M0 0 C1.14229879 3.42689636 0.90861076 5.61102218 0.5625 9.1875 C0.40974609 10.81751953 0.40974609 10.81751953 0.25390625 12.48046875 C0.17011719 13.31191406 0.08632813 14.14335937 0 15 C-2 13 -2 13 -2.265625 10.72265625 C-2.26046875 9.84480469 -2.2553125 8.96695312 -2.25 8.0625 C-2.25515625 7.18722656 -2.2603125 6.31195313 -2.265625 5.41015625 C-2 3 -2 3 0 0 Z " fill="#131413" transform="translate(524,251)"/>
<path d="M0 0 C0.99 0.33 1.98 0.66 3 1 C4.203125 3.6171875 4.203125 3.6171875 5.25 6.875 C5.60578125 7.94492187 5.9615625 9.01484375 6.328125 10.1171875 C7 13 7 13 6 16 C5.18082358 14.27398621 4.36993984 12.5440353 3.5625 10.8125 C3.11003906 9.84957031 2.65757812 8.88664063 2.19140625 7.89453125 C1.09618578 5.23368414 0.45045204 2.83215245 0 0 Z " fill="#131413" transform="translate(564,717)"/>
<path d="M0 0 C0.66 0.66 1.32 1.32 2 2 C0.35 4.97 -1.3 7.94 -3 11 C-3.99 10.01 -4.98 9.02 -6 8 C-5.34 6.68 -4.68 5.36 -4 4 C-3.34 4 -2.68 4 -2 4 C-2 3.34 -2 2.68 -2 2 C-1.34 2 -0.68 2 0 2 C0 1.34 0 0.68 0 0 Z " fill="#121312" transform="translate(332,577)"/>
<path d="M0 0 C0.99 0 1.98 0 3 0 C3.3125 3.1875 3.3125 3.1875 3 7 C0.5 9.9375 0.5 9.9375 -2 12 C-2 8.38954171 -1.00506392 5.45490723 0 2 C0 1.34 0 0.68 0 0 Z " fill="#111111" transform="translate(675,897)"/>
<path d="M0 0 C-2.40804568 2.40804568 -4.42203775 3.00768759 -7.625 4.125 C-8.62789062 4.47820313 -9.63078125 4.83140625 -10.6640625 5.1953125 C-11.82035156 5.59363281 -11.82035156 5.59363281 -13 6 C-13 5.34 -13 4.68 -13 4 C-12.34 4 -11.68 4 -11 4 C-10.67 3.01 -10.34 2.02 -10 1 C-6.76421296 -0.31828361 -3.44785988 -0.07836045 0 0 Z " fill="#111111" transform="translate(779,604)"/>
<path d="M0 0 C0.66 0.33 1.32 0.66 2 1 C1.56802365 5.7517398 0.67230705 7.92000054 -3 11 C-3.66 10.34 -4.32 9.68 -5 9 C-3.35 6.03 -1.7 3.06 0 0 Z " fill="#111212" transform="translate(378,448)"/>
<path d="M0 0 C0.33 0 0.66 0 1 0 C1.90765496 4.6290403 2.45297884 7.82993597 0 12 C-0.99 12.33 -1.98 12.66 -3 13 C-2.88557539 11.39504433 -2.75805306 9.79101881 -2.625 8.1875 C-2.55539062 7.29417969 -2.48578125 6.40085937 -2.4140625 5.48046875 C-2 3 -2 3 0 0 Z " fill="#181918" transform="translate(520,281)"/>
<path d="M0 0 C3.19137349 0.63252447 5.51237368 1.75603064 8.25 3.5 C8.95640625 3.9434375 9.6628125 4.386875 10.390625 4.84375 C11.18726563 5.41609375 11.18726563 5.41609375 12 6 C12 6.33 12 6.66 12 7 C7.33174173 7.70731186 4.96719769 5.92277529 1.35546875 3.2890625 C0.90816406 2.86367188 0.46085938 2.43828125 0 2 C0 1.34 0 0.68 0 0 Z " fill="#131413" transform="translate(794,378)"/>
<path d="M0 0 C0.66 0.33 1.32 0.66 2 1 C2 1.99 2 2.98 2 4 C1.34 4 0.68 4 0 4 C0 5.98 0 7.96 0 10 C-0.66 10 -1.32 10 -2 10 C-1.67 10.99 -1.34 11.98 -1 13 C-1.99 13.33 -2.98 13.66 -4 14 C-3.52525225 11.85318469 -3.04508251 9.70756772 -2.5625 7.5625 C-2.29566406 6.36753906 -2.02882813 5.17257812 -1.75390625 3.94140625 C-1 1 -1 1 0 0 Z " fill="#181919" transform="translate(829,510)"/>
<path d="M0 0 C0.80566406 0.07863281 1.61132812 0.15726563 2.44140625 0.23828125 C3.42947266 0.46064453 3.42947266 0.46064453 4.4375 0.6875 C4.7675 1.3475 5.0975 2.0075 5.4375 2.6875 C1.8075 2.6875 -1.8225 2.6875 -5.5625 2.6875 C-5.8925 2.0275 -6.2225 1.3675 -6.5625 0.6875 C-4.07849398 -0.55450301 -2.74042364 -0.29471651 0 0 Z " fill="#1F1F1F" transform="translate(558.5625,140.3125)"/>
<path d="M0 0 C3.9492568 0.55105909 7.34920174 1.38935371 11 3 C11 3.99 11 4.98 11 6 C6.95743617 4.77782954 3.50711041 3.37245704 0 1 C0 0.67 0 0.34 0 0 Z " fill="#111111" transform="translate(462,837)"/>
<path d="M0 0 C2.4056198 3.84899168 2.71267364 7.54644135 3 12 C2.34 12.66 1.68 13.32 1 14 C1 11.69 1 9.38 1 7 C0.34 7 -0.32 7 -1 7 C-0.67 4.69 -0.34 2.38 0 0 Z " fill="#121312" transform="translate(554,675)"/>
<path d="M0 0 C0.99 0 1.98 0 3 0 C2.67 3.3 2.34 6.6 2 10 C1.01 10 0.02 10 -1 10 C-0.67 6.7 -0.34 3.4 0 0 Z " fill="#151715" transform="translate(185,602)"/>
<path d="M0 0 C2.20914 3.31371 2.22481553 4.3446021 2.125 8.1875 C2.10695313 9.08855469 2.08890625 9.98960937 2.0703125 10.91796875 C2.03550781 11.94857422 2.03550781 11.94857422 2 13 C1.01 13 0.02 13 -1 13 C-0.67 8.71 -0.34 4.42 0 0 Z " fill="#171717" transform="translate(515,305)"/>
<path d="M0 0 C2.97 0.495 2.97 0.495 6 1 C6 1.66 6 2.32 6 3 C6.804375 3.12375 7.60875 3.2475 8.4375 3.375 C9.7059375 3.684375 9.7059375 3.684375 11 4 C11.33 4.66 11.66 5.32 12 6 C10.1838018 5.57811541 8.37205927 5.13700835 6.5625 4.6875 C5.55316406 4.44386719 4.54382813 4.20023438 3.50390625 3.94921875 C2.26447266 3.47935547 2.26447266 3.47935547 1 3 C0.67 2.01 0.34 1.02 0 0 Z " fill="#161716" transform="translate(529,877)"/>
<path d="M0 0 C0.99 0 1.98 0 3 0 C3.66 3.63 4.32 7.26 5 11 C4.01 11 3.02 11 2 11 C1.855625 9.9275 1.71125 8.855 1.5625 7.75 C1.16250558 5.08337051 0.72408076 2.58600271 0 0 Z " fill="#1A1B1A" transform="translate(207,659)"/>
<path d="M0 0 C0.66 0 1.32 0 2 0 C1.34 3.96 0.68 7.92 0 12 C-2.26907773 7.46184454 -2.00210012 5.82830058 -1 1 C-0.67 0.67 -0.34 0.34 0 0 Z " fill="#181918" transform="translate(210,592)"/>
<path d="M0 0 C0.33 0.66 0.66 1.32 1 2 C0.34 2 -0.32 2 -1 2 C-0.690625 3.11375 -0.690625 3.11375 -0.375 4.25 C0.04408751 7.32330841 -0.38050989 8.42786866 -2 11 C-2.66 11 -3.32 11 -4 11 C-3.71890887 9.35232753 -3.42481474 7.70686855 -3.125 6.0625 C-2.96257812 5.14597656 -2.80015625 4.22945312 -2.6328125 3.28515625 C-2.42398438 2.53105469 -2.21515625 1.77695312 -2 1 C-1.34 0.67 -0.68 0.34 0 0 Z " fill="#141514" transform="translate(190,588)"/>
<path d="M0 0 C-1.37154504 2.95409701 -2.98863724 5.44008376 -5 8 C-5.33 5.69 -5.66 3.38 -6 1 C-3.92446352 0.4465236 -2.15634036 0 0 0 Z " fill="#181918" transform="translate(752,587)"/>
<path d="M0 0 C3.80881639 1.44472346 5.29742886 3.32603071 7 7 C6.67 7.99 6.34 8.98 6 10 C3.25722422 6.80009492 1.3697164 3.99500618 0 0 Z " fill="#141514" transform="translate(821,461)"/>
<path d="M0 0 C-0.639375 0.268125 -1.27875 0.53625 -1.9375 0.8125 C-4.33131686 1.88667752 -4.33131686 1.88667752 -5 5 C-5 4.34 -5 3.68 -5 3 C-6.32 2.67 -7.64 2.34 -9 2 C-8 0 -8 0 -6.1875 -0.6875 C-3.81180233 -1.02688538 -2.26664171 -0.72856341 0 0 Z " fill="#131313" transform="translate(751,140)"/>
<path d="M0 0 C5.75 1.875 5.75 1.875 8 3 C7.67 3.99 7.34 4.98 7 6 C4.69 5.01 2.38 4.02 0 3 C0 2.01 0 1.02 0 0 Z " fill="#141515" transform="translate(345,789)"/>
<path d="M0 0 C3.69900008 0.88776002 7.34550461 1.94581864 11 3 C11 3.66 11 4.32 11 5 C7.7 4.34 4.4 3.68 1 3 C0.67 2.01 0.34 1.02 0 0 Z " fill="#191A19" transform="translate(645,609)"/>
<path d="M0 0 C3.63 0.66 7.26 1.32 11 2 C5.76844369 4.61577816 4.40261966 3.6207859 -1 2 C-0.67 1.34 -0.34 0.68 0 0 Z " fill="#121312" transform="translate(663,584)"/>
<path d="M0 0 C0.53625 0.37125 1.0725 0.7425 1.625 1.125 C-6.80357143 3.41071429 -6.80357143 3.41071429 -11.375 3.125 C-4.30720339 -1.58686441 -4.30720339 -1.58686441 0 0 Z " fill="#1D1D1C" transform="translate(765.375,583.875)"/>
<path d="M0 0 C0.66 0.33 1.32 0.66 2 1 C0.68 4.3 -0.64 7.6 -2 11 C-2.33 11 -2.66 11 -3 11 C-3.36923077 3.49230769 -3.36923077 3.49230769 -1.5 1 C-1.005 0.67 -0.51 0.34 0 0 Z " fill="#151615" transform="translate(667,220)"/>
<path d="M0 0 C0.33 0 0.66 0 1 0 C1 2.97 1 5.94 1 9 C0.01 9 -0.98 9 -2 9 C-2.25 3.375 -2.25 3.375 0 0 Z " fill="#101110" transform="translate(160,796)"/>
<path d="M0 0 C3.3125 -0.1875 3.3125 -0.1875 7 0 C7.99 0.99 8.98 1.98 10 3 C6.7 3 3.4 3 0 3 C0 2.01 0 1.02 0 0 Z " fill="#1F201F" transform="translate(699,591)"/>
<path d="M0 0 C3.63 0 7.26 0 11 0 C10.67 0.99 10.34 1.98 10 3 C5.06071112 3.3367697 4.21507278 3.16130459 0 0 Z " fill="#111212" transform="translate(345,484)"/>
<path d="M0 0 C2.12508244 3.18762365 2.5020163 5.26512223 3 9 C2.01 9 1.02 9 0 9 C-0.87890625 2.84765625 -0.87890625 2.84765625 -1 1 C-0.67 0.67 -0.34 0.34 0 0 Z " fill="#171817" transform="translate(863,453)"/>
<path d="M0 0 C0.99 0.33 1.98 0.66 3 1 C1.68 2.32 0.36 3.64 -1 5 C-1.99 4.67 -2.98 4.34 -4 4 C-2.68 2.68 -1.36 1.36 0 0 Z M-6 4 C-4 5 -4 5 -4 5 Z " fill="#121312" transform="translate(687,164)"/>
<path d="M0 0 C0 0.99 0 1.98 0 3 C-2.88834003 5.10770759 -4.38462395 6 -8 6 C-8 5.34 -8 4.68 -8 4 C-5.36 2.68 -2.72 1.36 0 0 Z " fill="#111111" transform="translate(705,154)"/>
<path d="M0 0 C2.64 0.66 5.28 1.32 8 2 C8 2.99 8 3.98 8 5 C5.36 4.34 2.72 3.68 0 3 C0 2.01 0 1.02 0 0 Z " fill="#131413" transform="translate(834,140)"/>
<path d="M0 0 C2.875 0.6875 2.875 0.6875 6 2 C7.375 4.625 7.375 4.625 8 7 C5.36 5.68 2.72 4.36 0 3 C0 2.01 0 1.02 0 0 Z " fill="#141515" transform="translate(287,780)"/>
<path d="M0 0 C3.465 1.485 3.465 1.485 7 3 C7 3.66 7 4.32 7 5 C3.62537285 4.45276317 1.91765 3.9451 -1 2 C-0.67 1.34 -0.34 0.68 0 0 Z " fill="#171817" transform="translate(314,773)"/>
<path d="M0 0 C1.5625 1.625 1.5625 1.625 3 4 C2.6875 7.25 2.6875 7.25 2 10 C1.01 9.67 0.02 9.34 -1 9 C-0.67 6.03 -0.34 3.06 0 0 Z " fill="#151715" transform="translate(512,624)"/>
<path d="M0 0 C-3.18762365 2.12508244 -5.26512223 2.5020163 -9 3 C-8.67 2.01 -8.34 1.02 -8 0 C-4.71023192 -1.09658936 -3.28696233 -0.79953138 0 0 Z " fill="#0F1110" transform="translate(764,610)"/>
<path d="M0 0 C-0.33 0.66 -0.66 1.32 -1 2 C-3.3140622 2.73075648 -5.64828869 3.40138258 -8 4 C-8.33 3.01 -8.66 2.02 -9 1 C-3.375 -1.125 -3.375 -1.125 0 0 Z " fill="#161817" transform="translate(303,490)"/>
<path d="M0 0 C0 0.99 0 1.98 0 3 C-1.65 2.67 -3.3 2.34 -5 2 C-5 2.66 -5 3.32 -5 4 C-5.99 3.67 -6.98 3.34 -8 3 C-8 2.34 -8 1.68 -8 1 C-5.23735711 0.40267181 -2.83967231 0 0 0 Z " fill="#161716" transform="translate(317,463)"/>
<path d="M0 0 C0.66 0.33 1.32 0.66 2 1 C1.37240135 3.92879371 0.41377341 6.36095629 -1 9 C-1.66 8.01 -2.32 7.02 -3 6 C-2.01 4.02 -1.02 2.04 0 0 Z " fill="#171817" transform="translate(528,177)"/>
<path d="M0 0 C0.33 0 0.66 0 1 0 C0.67 3.63 0.34 7.26 0 11 C-0.33 11 -0.66 11 -1 11 C-1.22174933 9.54364629 -1.42698698 8.08477044 -1.625 6.625 C-1.74101563 5.81289062 -1.85703125 5.00078125 -1.9765625 4.1640625 C-1.98429688 3.44992188 -1.99203125 2.73578125 -2 2 C-1.34 1.34 -0.68 0.68 0 0 Z " fill="#202020" transform="translate(568,170)"/>
<path d="M0 0 C4.875 3.625 4.875 3.625 6 7 C5.01 7.33 4.02 7.66 3 8 C2.731875 7.21625 2.46375 6.4325 2.1875 5.625 C1.15185568 2.71885077 1.15185568 2.71885077 -2 1 C-1.34 0.67 -0.68 0.34 0 0 Z " fill="#101110" transform="translate(564,142)"/>
<path d="M0 0 C2.31 0 4.62 0 7 0 C7 0.66 7 1.32 7 2 C7.66 2.33 8.32 2.66 9 3 C6.03 2.67 3.06 2.34 0 2 C0 1.34 0 0.68 0 0 Z " fill="#19191A" transform="translate(607,900)"/>
<path d="M0 0 C0.33 0 0.66 0 1 0 C1.33 2.97 1.66 5.94 2 9 C1.01 9 0.02 9 -1 9 C-1.09765625 2.84765625 -1.09765625 2.84765625 -1 1 C-0.67 0.67 -0.34 0.34 0 0 Z " fill="#1D1D1D" transform="translate(545,629)"/>
<path d="M0 0 C0.33 0 0.66 0 1 0 C1.66 3.63 2.32 7.26 3 11 C2.01 11 1.02 11 0 11 C0 7.37 0 3.74 0 0 Z " fill="#1C1D1D" transform="translate(505,400)"/>
<path d="M0 0 C0.66 0.33 1.32 0.66 2 1 C2 1.66 2 2.32 2 3 C0.02 3.99 -1.96 4.98 -4 6 C-4.33 5.01 -4.66 4.02 -5 3 C-2.625 1.4375 -2.625 1.4375 0 0 Z " fill="#131313" transform="translate(707,176)"/>
<path d="M0 0 C1.65 0.33 3.3 0.66 5 1 C5.33 1.99 5.66 2.98 6 4 C3.03 3.505 3.03 3.505 0 3 C0 2.01 0 1.02 0 0 Z " fill="#141514" transform="translate(475,859)"/>
<path d="M0 0 C1.41377341 2.63904371 2.37240135 5.07120629 3 8 C2.01 8 1.02 8 0 8 C-1.125 2.25 -1.125 2.25 0 0 Z " fill="#111111" transform="translate(548,758)"/>
<path d="M0 0 C0.66 0 1.32 0 2 0 C1.67 2.31 1.34 4.62 1 7 C0.01 7 -0.98 7 -2 7 C-1.34 4.69 -0.68 2.38 0 0 Z " fill="#121312" transform="translate(215,574)"/>
<path d="M0 0 C0.66 0.33 1.32 0.66 2 1 C1.40138258 3.35171131 0.73075648 5.6859378 0 8 C-0.99 8.495 -0.99 8.495 -2 9 C-1.125 2.25 -1.125 2.25 0 0 Z " fill="#111210" transform="translate(439,339)"/>
</svg>
